<svg xmlns="http://www.w3.org/2000/svg" viewBox="0 0 706 706.5"><defs><style>.cls-1{fill:#24253e;}.cls-2{fill:#f60b4a;}.cls-3{fill:#f6f6f6;}.cls-4{fill:#242540;}</style></defs><g id="Layer_2" data-name="Layer 2"><g id="Layer_1-2" data-name="Layer 1"><path class="cls-1" d="M706,353.25q0,17.73-1.72,35C686.71,566.93,536.14,706.5,353,706.5S19.29,566.93,1.72,388.28Q0,371,0,353.25a356.35,356.35,0,0,1,1.81-36C19.81,139.09,170.17,0,353,0S686.18,139.09,704.19,317.28A356.35,356.35,0,0,1,706,353.25Z"/><path id="pokeball-up" class="cls-2" d="M692.15,353.26H13.85C14.1,166.05,165.85,14.35,353,14.35S691.9,166.05,692.15,353.26Z"/><path id="pokeball-down" class="cls-3" d="M692.14,352.76C692.14,540.2,540.3,692.15,353,692.15S13.86,540.2,13.86,352.76Z"/><path class="cls-4" d="M706,353.72q0,17.73-1.72,35H1.72Q0,371.47,0,353.72a356.35,356.35,0,0,1,1.81-36H704.19A356.35,356.35,0,0,1,706,353.72Z"/><ellipse id="pokeball-middle" class="cls-1" cx="353" cy="353.25" rx="122.9" ry="122.99"/><ellipse id="pokeball-middle-2" data-name="pokeball-middle" class="cls-3" cx="351.77" cy="353.05" rx="80.9" ry="80.96"/><ellipse id="pokeball-middle-3" data-name="pokeball-middle" class="cls-3" cx="351.37" cy="352.69" rx="48.54" ry="48.57"/></g></g></svg>